<?xml version="1.0" encoding="utf-8"?>
<!-- Generator: Adobe Illustrator 16.0.0, SVG Export Plug-In . SVG Version: 6.00 Build 0)  -->
<!DOCTYPE svg PUBLIC "-//W3C//DTD SVG 1.1//EN" "http://www.w3.org/Graphics/SVG/1.1/DTD/svg11.dtd">
<svg version="1.1" id="Layer_1" xmlns="http://www.w3.org/2000/svg" xmlns:xlink="http://www.w3.org/1999/xlink" x="0px" y="0px"
	 width="54.182px" height="72.299px" viewBox="0 0 54.182 72.299" enable-background="new 0 0 54.182 72.299" xml:space="preserve">

<path fill="#555555" d="M42.556,37.484c1.025,1.027,1.664,2.447,1.664,4.015s-0.639,2.986-1.664,4.014L31.022,57.046
	c-1.027,1.027-2.447,1.664-4.014,1.664c-1.57,0-2.99-0.635-4.018-1.664L11.458,45.513c-1.027-1.027-1.662-2.445-1.662-4.014
	s0.635-2.988,1.662-4.015l11.533-11.533c1.027-1.027,2.447-1.664,4.018-1.663c1.566,0,2.986,0.635,4.014,1.663L42.556,37.484z"/>
<circle fill="#FFFFFF" cx="27.007" cy="28.629" r="2.239"/>
<g>
	<path fill="#FFFFFF" d="M27.007,33.499c-5.332,0-9.652,4.324-9.652,9.655c0,4.264,2.764,7.881,6.602,9.158
		c0.48,0.088,0.658-0.209,0.658-0.467c0-0.229-0.01-0.836-0.014-1.641c-2.686,0.584-3.252-1.295-3.252-1.295
		c-0.438-1.115-1.072-1.412-1.072-1.412c-0.877-0.598,0.068-0.586,0.068-0.586c0.969,0.068,1.477,0.996,1.477,0.996
		c0.863,1.475,2.26,1.049,2.811,0.801c0.088-0.623,0.338-1.049,0.615-1.291c-2.146-0.242-4.4-1.072-4.4-4.77
		c0-1.055,0.377-1.916,0.992-2.59c-0.098-0.246-0.428-1.229,0.096-2.554c0,0,0.812-0.26,2.656,0.988
		c0.77-0.215,1.596-0.322,2.416-0.324c0.82,0.002,1.645,0.109,2.418,0.324c1.84-1.248,2.65-0.988,2.65-0.988
		c0.525,1.326,0.195,2.308,0.1,2.554c0.615,0.674,0.99,1.535,0.99,2.59c0,3.707-2.26,4.523-4.408,4.764
		c0.348,0.297,0.654,0.887,0.654,1.787c0,1.289-0.012,2.332-0.012,2.646c0,0.26,0.174,0.561,0.664,0.465
		c3.834-1.279,6.598-4.895,6.598-9.156C36.661,37.822,32.337,33.499,27.007,33.499z"/>
	<circle fill="#FFFFFF" cx="23.955" cy="43.222" r="1.03"/>
	<circle fill="#FFFFFF" cx="30.058" cy="43.222" r="1.029"/>
</g>
<!-- <g> -->
<!-- 	<path fill="#E0E0E0" d="M1.63,66.425h2.554v0.629H2.373v0.824H3.96V68.5H2.373v1.502H1.63V66.425z"/> -->
<!-- 	<path fill="#E0E0E0" d="M7.428,69.683c-0.271,0.279-0.662,0.418-1.174,0.418s-0.902-0.139-1.173-0.418 -->
<!-- 		c-0.363-0.342-0.545-0.834-0.545-1.477c0-0.656,0.182-1.148,0.545-1.479c0.271-0.277,0.661-0.418,1.173-0.418 -->
<!-- 		s0.903,0.141,1.174,0.418c0.361,0.33,0.542,0.822,0.542,1.479C7.97,68.849,7.789,69.341,7.428,69.683z M6.96,69.138 -->
<!-- 		c0.174-0.219,0.262-0.529,0.262-0.932s-0.088-0.713-0.262-0.934c-0.174-0.219-0.409-0.328-0.706-0.328 -->
<!-- 		c-0.296,0-0.532,0.109-0.709,0.328S5.28,67.802,5.28,68.207c0,0.402,0.088,0.713,0.265,0.932s0.413,0.328,0.709,0.328 -->
<!-- 		C6.551,69.466,6.786,69.357,6.96,69.138z"/> -->
<!-- 	<path fill="#E0E0E0" d="M10.835,66.511c0.132,0.057,0.244,0.141,0.336,0.252c0.075,0.09,0.136,0.189,0.18,0.301 -->
<!-- 		c0.044,0.109,0.066,0.236,0.066,0.377c0,0.17-0.043,0.336-0.129,0.502c-0.086,0.164-0.228,0.279-0.425,0.348 -->
<!-- 		c0.165,0.066,0.282,0.16,0.351,0.283c0.069,0.123,0.104,0.309,0.104,0.561v0.24c0,0.164,0.007,0.273,0.02,0.332 -->
<!-- 		c0.02,0.094,0.066,0.16,0.139,0.205v0.09h-0.826c-0.022-0.08-0.039-0.145-0.049-0.191c-0.02-0.102-0.03-0.203-0.031-0.309 -->
<!-- 		l-0.005-0.334c-0.003-0.229-0.043-0.381-0.119-0.457c-0.075-0.076-0.218-0.113-0.426-0.113H9.288v1.404h-0.73v-3.582h1.713 -->
<!-- 		C10.515,66.425,10.703,66.455,10.835,66.511z M9.288,67.042v0.961h0.806c0.16,0,0.28-0.02,0.36-0.059 -->
<!-- 		c0.142-0.066,0.212-0.201,0.212-0.402c0-0.217-0.068-0.363-0.205-0.438c-0.077-0.043-0.192-0.062-0.347-0.062H9.288z"/> -->
<!-- 	<path fill="#E0E0E0" d="M12.146,66.419h0.735v1.477l1.384-1.477h0.968l-1.47,1.473l1.545,2.109h-0.963l-1.103-1.564l-0.361,0.367 -->
<!-- 		v1.197h-0.735V66.419z"/> -->
<!-- 	<path fill="#E0E0E0" d="M19.485,66.419h1.077v3.582h-0.697V67.58c0-0.07,0-0.168,0.002-0.293c0.002-0.127,0.003-0.223,0.003-0.291 -->
<!-- 		l-0.679,3.006h-0.728l-0.674-3.006c0,0.068,0.001,0.164,0.002,0.291c0.002,0.125,0.003,0.223,0.003,0.293v2.422h-0.697v-3.582 -->
<!-- 		h1.089l0.651,2.816L19.485,66.419z"/> -->
<!-- 	<path fill="#E0E0E0" d="M23.903,67.054h-1.896v0.76h1.74v0.623h-1.74v0.92h1.983v0.645h-2.714v-3.582h2.626V67.054z"/> -->
<!-- 	<path fill="#E0E0E0" d="M28.715,69.683c-0.271,0.279-0.662,0.418-1.174,0.418s-0.902-0.139-1.173-0.418 -->
<!-- 		c-0.363-0.342-0.545-0.834-0.545-1.477c0-0.656,0.182-1.148,0.545-1.479c0.271-0.277,0.661-0.418,1.173-0.418 -->
<!-- 		s0.903,0.141,1.174,0.418c0.361,0.33,0.542,0.822,0.542,1.479C29.257,68.849,29.076,69.341,28.715,69.683z M28.247,69.138 -->
<!-- 		c0.174-0.219,0.262-0.529,0.262-0.932s-0.088-0.713-0.262-0.934c-0.174-0.219-0.409-0.328-0.706-0.328 -->
<!-- 		c-0.296,0-0.532,0.109-0.709,0.328s-0.265,0.529-0.265,0.934c0,0.402,0.088,0.713,0.265,0.932s0.413,0.328,0.709,0.328 -->
<!-- 		C27.838,69.466,28.073,69.357,28.247,69.138z"/> -->
<!-- 	<path fill="#E0E0E0" d="M29.815,66.419H30.6l1.422,2.498v-2.498h0.697v3.582h-0.748l-1.458-2.541v2.541h-0.697V66.419z"/> -->
<!-- 	<path fill="#E0E0E0" d="M37.212,67.537c-0.057-0.244-0.195-0.414-0.416-0.512c-0.123-0.053-0.26-0.08-0.41-0.08 -->
<!-- 		c-0.288,0-0.525,0.109-0.711,0.326s-0.278,0.545-0.278,0.98c0,0.439,0.101,0.752,0.302,0.934c0.2,0.184,0.429,0.273,0.685,0.273 -->
<!-- 		c0.251,0,0.457-0.07,0.617-0.215c0.161-0.145,0.26-0.334,0.297-0.566h-0.829V68.08h1.492v1.922h-0.495l-0.076-0.447 -->
<!-- 		c-0.144,0.17-0.273,0.289-0.389,0.357c-0.197,0.121-0.44,0.182-0.729,0.182c-0.475,0-0.863-0.164-1.166-0.492 -->
<!-- 		c-0.316-0.33-0.475-0.783-0.475-1.355c0-0.58,0.16-1.045,0.479-1.395c0.318-0.35,0.74-0.523,1.266-0.523 -->
<!-- 		c0.455,0,0.82,0.115,1.097,0.346s0.435,0.52,0.476,0.863H37.212z"/> -->
<!-- 	<path fill="#E0E0E0" d="M39.356,70.001h-0.743v-3.582h0.743V70.001z"/> -->
<!-- 	<path fill="#E0E0E0" d="M42.659,66.419v0.635h-1.071v2.947h-0.754v-2.947h-1.076v-0.635H42.659z"/> -->
<!-- 	<path fill="#E0E0E0" d="M43.091,70.001v-3.582h0.744v1.365h1.392v-1.365h0.744v3.582h-0.744v-1.6h-1.392v1.6H43.091z"/> -->
<!-- 	<path fill="#E0E0E0" d="M46.689,66.419h0.761v2.199c0,0.246,0.029,0.426,0.087,0.539c0.091,0.201,0.287,0.301,0.591,0.301 -->
<!-- 		c0.302,0,0.498-0.1,0.589-0.301c0.058-0.113,0.087-0.293,0.087-0.539v-2.199h0.761v2.201c0,0.381-0.06,0.678-0.178,0.891 -->
<!-- 		c-0.22,0.389-0.64,0.582-1.259,0.582s-1.04-0.193-1.262-0.582c-0.117-0.213-0.177-0.51-0.177-0.891V66.419z"/> -->
<!-- 	<path fill="#E0E0E0" d="M52.954,66.8c0.11,0.152,0.165,0.336,0.165,0.547c0,0.219-0.056,0.395-0.166,0.527 -->
<!-- 		c-0.062,0.076-0.153,0.143-0.273,0.205c0.183,0.066,0.321,0.172,0.414,0.316c0.093,0.143,0.14,0.318,0.14,0.523 -->
<!-- 		c0,0.213-0.054,0.402-0.16,0.572c-0.067,0.111-0.151,0.205-0.253,0.281c-0.114,0.088-0.25,0.146-0.405,0.18 -->
<!-- 		s-0.324,0.049-0.506,0.049h-1.613v-3.582h1.73C52.463,66.425,52.772,66.554,52.954,66.8z M51.01,67.042v0.789h0.87 -->
<!-- 		c0.156,0,0.282-0.029,0.379-0.088c0.098-0.061,0.146-0.164,0.146-0.316c0-0.166-0.063-0.275-0.192-0.33 -->
<!-- 		c-0.11-0.037-0.252-0.055-0.423-0.055H51.01z M51.01,68.423v0.955h0.869c0.155,0,0.276-0.02,0.363-0.062 -->
<!-- 		c0.157-0.078,0.235-0.227,0.235-0.447c0-0.186-0.076-0.314-0.229-0.383c-0.085-0.039-0.204-0.061-0.357-0.062H51.01z"/> -->
<!-- </g> -->
<!-- <g> -->
<!-- 	<path fill="#F6A2AD" d="M1.33,66.125h2.554v0.629H2.073v0.824H3.66v0.623H2.073v1.5H1.33V66.125z"/> -->
<!-- 	<path fill="#F6A2AD" d="M7.128,69.382C6.857,69.662,6.466,69.8,5.954,69.8s-0.902-0.139-1.173-0.418 -->
<!-- 		c-0.363-0.342-0.545-0.834-0.545-1.477c0-0.656,0.182-1.148,0.545-1.477c0.271-0.279,0.661-0.418,1.173-0.418 -->
<!-- 		s0.903,0.139,1.174,0.418c0.361,0.328,0.542,0.82,0.542,1.477C7.67,68.548,7.489,69.041,7.128,69.382z M6.66,68.839 -->
<!-- 		c0.174-0.219,0.262-0.529,0.262-0.934c0-0.402-0.088-0.713-0.262-0.932s-0.409-0.33-0.706-0.33c-0.296,0-0.532,0.109-0.709,0.328 -->
<!-- 		S4.98,67.503,4.98,67.906c0,0.404,0.088,0.715,0.265,0.934s0.413,0.328,0.709,0.328C6.251,69.167,6.486,69.058,6.66,68.839z"/> -->
<!-- 	<path fill="#F6A2AD" d="M10.535,66.212c0.132,0.057,0.244,0.141,0.336,0.25c0.075,0.092,0.136,0.191,0.18,0.301 -->
<!-- 		c0.044,0.111,0.066,0.236,0.066,0.377c0,0.17-0.043,0.338-0.129,0.502s-0.228,0.281-0.425,0.35c0.165,0.066,0.282,0.16,0.351,0.283 -->
<!-- 		c0.069,0.121,0.104,0.309,0.104,0.559v0.24c0,0.164,0.007,0.275,0.02,0.334c0.02,0.092,0.066,0.16,0.139,0.203v0.09H10.35 -->
<!-- 		c-0.022-0.078-0.039-0.143-0.049-0.191c-0.02-0.1-0.03-0.203-0.031-0.309l-0.005-0.332c-0.003-0.229-0.043-0.381-0.119-0.457 -->
<!-- 		c-0.075-0.076-0.218-0.115-0.426-0.115H8.988v1.404h-0.73v-3.58h1.713C10.215,66.125,10.403,66.156,10.535,66.212z M8.988,66.742 -->
<!-- 		v0.963h0.806c0.16,0,0.28-0.02,0.36-0.059c0.142-0.068,0.212-0.203,0.212-0.404c0-0.217-0.068-0.361-0.205-0.438 -->
<!-- 		c-0.077-0.041-0.192-0.062-0.347-0.062H8.988z"/> -->
<!-- 	<path fill="#F6A2AD" d="M11.847,66.121h0.735v1.475l1.384-1.475h0.968l-1.47,1.473l1.545,2.107h-0.963l-1.103-1.562l-0.361,0.365 -->
<!-- 		v1.197h-0.735V66.121z"/> -->
<!-- 	<path fill="#F6A2AD" d="M19.186,66.121h1.077v3.58h-0.697v-2.422c0-0.07,0-0.168,0.002-0.293s0.003-0.223,0.003-0.289l-0.679,3.004 -->
<!-- 		h-0.728l-0.674-3.004c0,0.066,0.001,0.164,0.002,0.289c0.002,0.125,0.003,0.223,0.003,0.293v2.422h-0.697v-3.58h1.089l0.651,2.816 -->
<!-- 		L19.186,66.121z"/> -->
<!-- 	<path fill="#F6A2AD" d="M23.604,66.753h-1.896v0.762h1.74v0.621h-1.74v0.922h1.983v0.643h-2.714v-3.58h2.626V66.753z"/> -->
<!-- 	<path fill="#F6A2AD" d="M28.415,69.382c-0.271,0.279-0.662,0.418-1.174,0.418s-0.902-0.139-1.173-0.418 -->
<!-- 		c-0.363-0.342-0.545-0.834-0.545-1.477c0-0.656,0.182-1.148,0.545-1.477c0.271-0.279,0.661-0.418,1.173-0.418 -->
<!-- 		s0.903,0.139,1.174,0.418c0.361,0.328,0.542,0.82,0.542,1.477C28.957,68.548,28.776,69.041,28.415,69.382z M27.947,68.839 -->
<!-- 		c0.174-0.219,0.262-0.529,0.262-0.934c0-0.402-0.088-0.713-0.262-0.932s-0.409-0.33-0.706-0.33c-0.296,0-0.532,0.109-0.709,0.328 -->
<!-- 		s-0.265,0.531-0.265,0.934c0,0.404,0.088,0.715,0.265,0.934s0.413,0.328,0.709,0.328C27.538,69.167,27.773,69.058,27.947,68.839z" -->
<!-- 		/> -->
<!-- 	<path fill="#F6A2AD" d="M29.516,66.121H30.3l1.422,2.496v-2.496h0.697v3.58h-0.748l-1.458-2.541v2.541h-0.697V66.121z"/> -->
<!-- 	<path fill="#F6A2AD" d="M36.912,67.238c-0.057-0.244-0.195-0.416-0.416-0.514c-0.123-0.053-0.26-0.08-0.41-0.08 -->
<!-- 		c-0.288,0-0.525,0.109-0.711,0.326c-0.186,0.219-0.278,0.545-0.278,0.982c0,0.439,0.101,0.75,0.302,0.934 -->
<!-- 		c0.2,0.182,0.429,0.273,0.685,0.273c0.251,0,0.457-0.072,0.617-0.217c0.161-0.143,0.26-0.332,0.297-0.566h-0.829v-0.598h1.492 -->
<!-- 		v1.922h-0.495l-0.076-0.447c-0.144,0.17-0.273,0.289-0.389,0.359c-0.197,0.121-0.44,0.182-0.729,0.182 -->
<!-- 		c-0.475,0-0.863-0.164-1.166-0.494c-0.316-0.33-0.475-0.781-0.475-1.354c0-0.58,0.16-1.045,0.479-1.395 -->
<!-- 		c0.318-0.35,0.74-0.525,1.266-0.525c0.455,0,0.82,0.115,1.097,0.348c0.276,0.23,0.435,0.518,0.476,0.863H36.912z"/> -->
<!-- 	<path fill="#F6A2AD" d="M39.057,69.701h-0.743v-3.58h0.743V69.701z"/> -->
<!-- 	<path fill="#F6A2AD" d="M42.359,66.121v0.633h-1.071v2.947h-0.754v-2.947h-1.076v-0.633H42.359z"/> -->
<!-- 	<path fill="#F6A2AD" d="M42.791,69.701v-3.58h0.744v1.365h1.392v-1.365h0.744v3.58h-0.744v-1.598h-1.392v1.598H42.791z"/> -->
<!-- 	<path fill="#F6A2AD" d="M46.39,66.121h0.761v2.199c0,0.246,0.029,0.426,0.087,0.539c0.091,0.201,0.287,0.301,0.591,0.301 -->
<!-- 		c0.302,0,0.498-0.1,0.589-0.301c0.058-0.113,0.087-0.293,0.087-0.539v-2.199h0.761v2.201c0,0.381-0.06,0.676-0.178,0.889 -->
<!-- 		c-0.22,0.389-0.64,0.584-1.259,0.584s-1.04-0.195-1.262-0.584c-0.117-0.213-0.177-0.508-0.177-0.889V66.121z"/> -->
<!-- 	<path fill="#F6A2AD" d="M52.654,66.501c0.11,0.152,0.165,0.334,0.165,0.547c0,0.219-0.056,0.395-0.166,0.527 -->
<!-- 		c-0.062,0.074-0.153,0.143-0.273,0.203c0.183,0.066,0.321,0.172,0.414,0.316s0.14,0.318,0.14,0.525c0,0.211-0.054,0.402-0.16,0.57 -->
<!-- 		c-0.067,0.111-0.151,0.205-0.253,0.281c-0.114,0.088-0.25,0.148-0.405,0.18c-0.155,0.033-0.324,0.049-0.506,0.049h-1.613v-3.58 -->
<!-- 		h1.73C52.163,66.126,52.473,66.253,52.654,66.501z M50.71,66.742v0.789h0.87c0.156,0,0.282-0.029,0.379-0.088 -->
<!-- 		c0.098-0.059,0.146-0.164,0.146-0.314c0-0.166-0.063-0.277-0.192-0.33c-0.11-0.037-0.252-0.057-0.423-0.057H50.71z M50.71,68.125 -->
<!-- 		v0.955h0.869c0.155,0,0.276-0.021,0.363-0.062c0.157-0.078,0.235-0.229,0.235-0.447c0-0.188-0.076-0.314-0.229-0.385 -->
<!-- 		c-0.085-0.039-0.204-0.059-0.357-0.061H50.71z"/> -->
<!-- </g> -->
<!-- <path fill="#555555" d="M27.32,1l-0.726,0.462v2.946v0.019v2.927v0.019V10.3v0.019v2.927v0.019v2.926v0.02v2.927v0.019v2.928v0.019 -->
<!-- 	v2.927v0.019v1.498v1.448v1.448c0,0.504,0.408,0.912,0.912,0.912s0.912-0.408,0.912-0.912v-2.589v-0.307v-2.639v-0.041v-2.905V20.92 -->
<!-- 	v-2.905v-0.041V15.07v-0.042v-2.904v-0.041V9.178V9.137V6.232V6.191V3.286V3.245V1H27.32z"/> -->
<polygon fill="#FFFFFF" points="26.095,1 26.095,3.927 27.919,2.786 27.919,1 "/>
<polygon fill="#FFFFFF" points="27.919,14.57 26.095,15.711 26.095,12.746 27.919,11.583 "/>
<polygon fill="#555555" points="27.919,17.515 26.095,18.656 26.095,15.691 27.919,14.528 "/>
<polygon fill="#FFFFFF" points="27.919,20.461 26.095,21.603 26.095,18.638 27.919,17.475 "/>
<polygon fill="#555555" points="27.919,23.407 26.095,24.548 26.095,21.584 27.919,20.42 "/>
<polygon fill="#555555" points="27.919,5.732 26.095,6.873 26.095,3.909 27.919,2.745 "/>
<polygon fill="#FFFFFF" points="27.919,8.678 26.095,9.819 26.095,6.854 27.919,5.691 "/>
<polygon fill="#555555" points="27.919,11.624 26.095,12.765 26.095,9.8 27.919,8.637 "/>
<path fill="#555555" d="M27.919,28.942c0,0.504-0.408,0.912-0.912,0.912l0,0c-0.504,0-0.912-0.408-0.912-0.912v-2.896
	c0-0.504,0.408-0.912,0.912-0.912l0,0c0.504,0,0.912,0.408,0.912,0.912V28.942z"/>
<polygon fill="#FFFFFF" points="27.919,26.353 26.095,27.494 26.095,24.53 27.919,23.366 "/>
</svg>
