<?xml version="1.0" encoding="UTF-8" standalone="no"?>
<!-- Generator: Adobe Illustrator 16.0.0, SVG Export Plug-In . SVG Version: 6.00 Build 0)  -->

<svg
   xmlns:dc="http://purl.org/dc/elements/1.1/"
   xmlns:cc="http://creativecommons.org/ns#"
   xmlns:rdf="http://www.w3.org/1999/02/22-rdf-syntax-ns#"
   xmlns:svg="http://www.w3.org/2000/svg"
   xmlns="http://www.w3.org/2000/svg"
   xmlns:sodipodi="http://sodipodi.sourceforge.net/DTD/sodipodi-0.dtd"
   xmlns:inkscape="http://www.inkscape.org/namespaces/inkscape"
   version="1.1"
   id="Layer_1"
   x="0px"
   y="0px"
   width="67.667px"
   height="80px"
   viewBox="0 0 67.667 80"
   enable-background="new 0 0 67.667 80"
   xml:space="preserve"
   inkscape:version="0.48.3.1 r9886"
   sodipodi:docname="github.svg"><metadata
   id="metadata3039"><rdf:RDF><cc:Work
       rdf:about=""><dc:format>image/svg+xml</dc:format><dc:type
         rdf:resource="http://purl.org/dc/dcmitype/StillImage" /></cc:Work></rdf:RDF></metadata><defs
   id="defs3037" /><sodipodi:namedview
   pagecolor="#ffffff"
   bordercolor="#666666"
   borderopacity="1"
   objecttolerance="10"
   gridtolerance="10"
   guidetolerance="10"
   inkscape:pageopacity="0"
   inkscape:pageshadow="2"
   inkscape:window-width="1366"
   inkscape:window-height="692"
   id="namedview3035"
   showgrid="false"
   inkscape:zoom="6.525"
   inkscape:cx="33.8335"
   inkscape:cy="40"
   inkscape:window-x="0"
   inkscape:window-y="24"
   inkscape:window-maximized="1"
   inkscape:current-layer="Layer_1" />
<path
   fill="#454545"
   d="M26.688,35.022c0,2.566-2.081,4.646-4.646,4.646s-4.646-2.08-4.646-4.646s2.081-4.646,4.646-4.646  S26.688,32.456,26.688,35.022z M49.918,30.376c-2.566,0-4.646,2.08-4.646,4.646s2.08,4.646,4.646,4.646  c2.565,0,4.646-2.08,4.646-4.646S52.484,30.376,49.918,30.376z M63.856,3.661v31.361c0,7.666-6.271,13.938-13.938,13.938h-4.09  c1.828,2.211,2.928,5.045,2.928,8.131v17.422c0,1.283-1.04,2.324-2.323,2.324c-1.282,0-2.322-1.041-2.322-2.324V60.576  c0-1.51-0.975-2.799-2.323-3.28v17.218c0,1.283-1.04,2.324-2.323,2.324s-2.323-1.041-2.323-2.324V57.091h-2.323v17.422  c0,1.283-1.04,2.324-2.322,2.324c-1.283,0-2.323-1.041-2.323-2.324V57.295c-1.35,0.481-2.323,1.771-2.323,3.28v13.938  c0,1.283-1.04,2.324-2.323,2.324c-1.282,0-2.323-1.041-2.323-2.324V62.765l0,0c-1.47,0.796-3.364,1.295-5.808,1.295  c-4.112,0-9.316-2.547-13.257-6.488c-0.454-0.453-0.681-1.048-0.681-1.643c0-0.594,0.227-1.188,0.681-1.643  c0.453-0.453,1.048-0.68,1.642-0.68c0.595,0,1.189,0.227,1.643,0.68c3.02,3.02,7.12,5.127,9.973,5.127  c3.41,0,5.168-1.211,5.877-4.048c0.023-0.093,0.054-0.184,0.088-0.271v-0.001c0.364-2.307,1.348-4.409,2.773-6.133h-4.092  c-7.666,0-13.938-6.272-13.938-13.938V3.661c0-0.446,0.256-0.854,0.659-1.047c0.159-0.077,0.331-0.115,0.503-0.115  c0.258,0,0.516,0.087,0.726,0.255l11.297,9.038h29.385l11.297-9.038c0.21-0.168,0.467-0.255,0.726-0.255  c0.171,0,0.343,0.038,0.503,0.115C63.6,2.807,63.856,3.214,63.856,3.661z M59.21,35.022c0-5.111-4.182-9.292-9.292-9.292H22.042  c-5.11,0-9.292,4.182-9.292,9.292c0,5.11,4.182,9.292,9.292,9.292h27.877C55.029,44.314,59.21,40.132,59.21,35.022z"
   id="path3033"
   style="fill:#000000" />
<path
   style="fill:#000000"
   d="m 20.820686,39.399411 c -0.914551,-0.258013 -1.892744,-0.984872 -2.528137,-1.878566 -2.06206,-2.900333 0.147171,-7.008687 3.76726,-7.005712 4.012293,0.0033 6.029856,4.881795 3.174747,7.676588 -1.172503,1.147733 -2.925883,1.62748 -4.41387,1.20769 z"
   id="path3041"
   inkscape:connector-curvature="0" /><path
   style="fill:#000000"
   d="m 24.346585,76.341773 c -1.055474,-0.705103 -1.056642,-0.713398 -1.056909,-7.506524 -1.3e-4,-3.350575 -0.04655,-6.091954 -0.103155,-6.091954 -0.05661,0 -0.544782,0.176774 -1.084839,0.392829 -4.939558,1.976135 -11.079086,0.311632 -16.6729501,-4.520247 -1.8933644,-1.635452 -2.2639768,-2.525019 -1.5620595,-3.749348 0.6141644,-1.071265 1.9842888,-1.478894 2.9476704,-0.876967 0.2528736,0.157997 0.908046,0.681776 1.4559387,1.163952 2.1139615,1.860408 4.2652315,3.137697 6.4367815,3.821756 1.527148,0.481067 2.747351,0.599947 4.12164,0.401558 2.749298,-0.396883 3.891079,-1.531608 4.694887,-4.665876 0.595792,-2.323156 1.095976,-3.478363 2.129335,-4.917849 L 26.203016,49.02682 23.328602,48.924406 C 20.175678,48.812069 18.670665,48.565137 17.003286,47.886593 15.146884,47.131125 13.792436,46.224316 12.317669,44.749548 10.352708,42.784587 9.1230927,40.583796 8.4777868,37.876852 8.2371703,36.867508 8.2085186,35.257661 8.1634369,20.214559 8.1238004,6.9884484 8.1532524,3.5864603 8.3100207,3.2827138 8.5399434,2.8372267 9.1026555,2.5193111 9.4845025,2.6191664 9.6323447,2.657828 12.333419,4.7532009 15.48689,7.2755505 l 5.733583,4.5860905 14.751173,2.14e-4 14.751172,2.14e-4 5.749234,-4.5977012 c 5.04623,-4.0355054 5.814105,-4.5977011 6.279776,-4.5977011 1.075007,0 1.009916,-1.1976794 0.962949,17.7184873 l -0.0422,16.994156 -0.431581,1.379311 c -1.777042,5.679335 -6.385665,9.486211 -12.145245,10.032378 -0.921825,0.08742 -2.486392,0.158993 -3.476813,0.159064 -0.990422,7e-5 -1.800767,0.03445 -1.800767,0.0764 0,0.04195 0.235007,0.404018 0.522236,0.804598 0.778298,1.085433 1.536641,2.711704 1.947579,4.176599 l 0.365434,1.302682 0,9.885057 c 0,9.226682 -0.01836,9.918684 -0.27564,10.389919 -0.377302,0.691068 -1.10449,1.103188 -1.946582,1.103188 -0.842092,0 -1.56928,-0.41212 -1.946582,-1.103188 -0.252071,-0.461693 -0.282192,-1.173178 -0.352269,-8.320953 l -0.07663,-7.816092 -0.425529,-0.723896 c -0.364174,-0.61952 -1.44835,-1.498326 -1.848472,-1.498326 -0.05581,0 -0.101478,4.003425 -0.101478,8.896499 0,9.750256 0.03586,9.356529 -0.925794,10.165704 -0.923297,0.776905 -2.522351,0.424385 -3.212964,-0.708312 -0.294741,-0.483413 -0.304558,-0.789217 -0.305113,-9.503317 l -5.73e-4,-9.003831 -1.226054,0 -1.226054,0 -0.0034,8.850575 c -0.0032,8.396219 -0.01847,8.883849 -0.297603,9.498749 -0.736871,1.623251 -3.094072,1.720779 -3.944465,0.1632 -0.254928,-0.466927 -0.278873,-1.175628 -0.318679,-9.432064 -0.02454,-5.092273 -0.101721,-8.927203 -0.17965,-8.927203 -0.329674,0 -1.496526,1.069972 -1.84627,1.69298 l -0.383142,0.682499 -0.07663,7.816092 c -0.05661,5.774717 -0.125759,7.901834 -0.264745,8.144389 -0.103463,0.180562 -0.401859,0.508148 -0.663099,0.727969 -0.631402,0.531289 -1.707759,0.553954 -2.459454,0.05179 l 0,0 z M 53.01778,43.857643 c 1.404589,-0.512604 3.003223,-1.58332 3.925145,-2.62894 0.905125,-1.026573 1.847206,-2.948324 2.15,-4.385791 0.965718,-4.58459 -1.878328,-9.331314 -6.454827,-10.77313 l -1.072797,-0.337981 -15.708813,0 -15.708812,0 -1.272247,0.490254 c -4.022334,1.549988 -6.344478,5.085327 -6.119355,9.316389 0.135035,2.537905 0.942078,4.318192 2.779793,6.132054 1.240841,1.224734 2.493035,1.948633 4.106324,2.373881 1.072543,0.282712 1.757821,0.293528 16.674068,0.263155 l 15.555555,-0.03167 1.145966,-0.418219 z"
   id="path3043"
   inkscape:connector-curvature="0" /></svg>
