<?xml version="1.0" encoding="utf-8"?>
<!-- Generator: Adobe Illustrator 16.0.0, SVG Export Plug-In . SVG Version: 6.00 Build 0)  -->
<!DOCTYPE svg PUBLIC "-//W3C//DTD SVG 1.1//EN" "http://www.w3.org/Graphics/SVG/1.1/DTD/svg11.dtd">
<svg version="1.1" id="Layer_1" xmlns="http://www.w3.org/2000/svg" xmlns:xlink="http://www.w3.org/1999/xlink" x="0px" y="0px"
	 width="317.032px" height="242.447px" viewBox="0 0 317.032 242.447" enable-background="new 0 0 317.032 242.447"
	 xml:space="preserve">
<path fill="#F6BF46" d="M317.032,218.257c0,4.886-1.865,9.774-5.594,13.503c-3.73,3.729-8.616,5.595-13.505,5.595H19.098
	c-4.888,0-9.774-1.865-13.504-5.595C1.865,228.032,0,223.143,0,218.257V22.281c0-4.887,1.865-9.775,5.594-13.505
	c3.729-3.729,8.616-5.593,13.504-5.593h278.836c4.889,0,9.774,1.863,13.505,5.593c3.729,3.729,5.594,8.618,5.594,13.505V218.257z"/>
<rect x="262.919" y="1.91" fill="#E0E0E0" width="15.278" height="240.537"/>
<rect x="261.009" y="0" fill="#4F88B8" width="15.278" height="240.537"/>
<polygon fill="#E0E0E0" points="55.702,242.447 48.062,236.717 40.424,242.447 40.424,221.2 55.702,221.2 "/>
<polygon fill="#DD5757" points="53.793,240.537 46.152,234.807 38.514,240.537 38.514,219.291 53.793,219.291 "/>
<path fill="#E0E0E0" d="M308.438,28.966c0-2.444-0.933-4.887-2.798-6.752c-1.863-1.865-4.308-2.797-6.751-2.797H25.783
	c-2.443,0-4.889,0.932-6.752,2.797c-1.865,1.865-2.798,4.308-2.798,6.752v190.243c0,2.445,0.933,4.889,2.798,6.754
	c1.863,1.863,4.309,2.796,6.752,2.796h273.105c2.443,0,4.888-0.933,6.751-2.796c1.865-1.865,2.798-4.309,2.798-6.754V28.966z"/>
<path fill="#FFFFFF" d="M304.618,25.147c0-2.444-0.933-4.888-2.798-6.753c-1.863-1.863-4.309-2.797-6.752-2.797H21.963
	c-2.443,0-4.889,0.934-6.752,2.797c-1.864,1.865-2.797,4.309-2.797,6.753V215.39c0,2.444,0.933,4.889,2.797,6.754
	c1.863,1.863,4.309,2.795,6.752,2.795h273.105c2.443,0,4.889-0.932,6.752-2.795c1.865-1.865,2.798-4.31,2.798-6.754V25.147z"/>
<rect x="156.367" y="15.597" fill="#D6D6D6" width="4.297" height="209.342"/>
</svg>
